# xmcd
#
# Track frame offsets: 
#        182
#        11550
#        22700
#        37262
#        49555
#        61317
#        79090
#        92492
#        109125
#        121450
#        132432
#        145162
#        157905
#        170882
#
# Disc length: 2466 seconds
#
# Revision: 3
# Processed by: cddbd v1.5.2PL0 Copyright (c) Steve Scherf et al.
# Submitted via: ExactAudioCopy v0.99pb5
#
DISCID=b309a00e
DTITLE=Lucho Bermudez Y Su Orquesta - 14 grandes exitos
DYEAR=1991
DGENRE=Salsa
TTITLE0=Carmen de Bolivar
TTITLE1=Danza Negra
TTITLE2=La Mucura
TTITLE3=Salsipuedes
TTITLE4=La Gaita
TTITLE5=Navidad Negra
TTITLE6=San Fernando
TTITLE7=Pepe
TTITLE8=Baila Suavecito
TTITLE9=24 de Diciembre
TTITLE10=Mapale Sabroso
TTITLE11=Arepa de Pilon
TTITLE12=Linda Clarita
TTITLE13=La Bramadora
EXTD=YEAR: 1991
EXTT0=
EXTT1=
EXTT2=
EXTT3=
EXTT4=
EXTT5=
EXTT6=
EXTT7=
EXTT8=
EXTT9=
EXTT10=
EXTT11=
EXTT12=
EXTT13=
PLAYORDER=
